<svg xmlns="http://www.w3.org/2000/svg" width="24" height="24" viewBox="0 0 24 24" fill="none">
  <path d="M12 2C6.486 2 2 6.486 2 12c0 4.418 2.865 8.168 6.839 9.491.5.092.683-.216.683-.483v-1.878c-2.528.549-3.062-1.219-3.062-1.219-.412-1.047-1.003-1.327-1.003-1.327-.818-.559.062-.546.062-.546.904.063 1.377.924 1.377.924.801 1.371 2.097.975 2.604.746.084-.581.313-.975.572-1.201-2.005-.226-4.106-1.002-4.106-4.455 0-.986.354-1.792.936-2.422-.094-.228-.406-1.147.089-2.392 0 0 .757-.242 2.482.924.72-.2 1.493-.299 2.263-.303.77.004 1.543.103 2.263.303 1.725-1.165 2.482-.924 2.482-.924.496 1.245.183 2.164.089 2.392.582.63.936 1.436.936 2.422 0 3.464-2.104 4.229-4.116 4.455.32.273.608.814.608 1.634v2.418c0 .27.184.575.689.478C21.136 20.168 24 16.418 24 12c0-5.514-4.486-10-10-10z" fill="white"/>
</svg>
